<mxfile host="65bd71144e">
    <diagram id="38DGV27FGCLcL7zTDLlH" name="第 1 页">
        <mxGraphModel dx="1227" dy="2036" grid="1" gridSize="10" guides="1" tooltips="1" connect="1" arrows="1" fold="1" page="1" pageScale="1" pageWidth="827" pageHeight="1169" math="0" shadow="0">
            <root>
                <mxCell id="0"/>
                <mxCell id="1" parent="0"/>
                <mxCell id="48" value="" style="rounded=0;whiteSpace=wrap;html=1;" vertex="1" parent="1">
                    <mxGeometry x="657" y="220" width="170" height="220" as="geometry"/>
                </mxCell>
                <mxCell id="47" value="" style="rounded=0;whiteSpace=wrap;html=1;" vertex="1" parent="1">
                    <mxGeometry x="280" y="220" width="170" height="220" as="geometry"/>
                </mxCell>
                <mxCell id="3a6RCcFlJezi493A5CJC-46" value="" style="rounded=0;whiteSpace=wrap;html=1;" vertex="1" parent="1">
                    <mxGeometry x="860" y="-60" width="140" height="500" as="geometry"/>
                </mxCell>
                <mxCell id="2" value="低代码sdk" style="rounded=0;whiteSpace=wrap;html=1;" parent="1" vertex="1">
                    <mxGeometry x="316" y="270" width="120" height="60" as="geometry"/>
                </mxCell>
                <mxCell id="6" value="mysql" style="shape=cylinder3;whiteSpace=wrap;html=1;boundedLbl=1;backgroundOutline=1;size=15;" parent="1" vertex="1">
                    <mxGeometry x="310" y="360" width="60" height="80" as="geometry"/>
                </mxCell>
                <mxCell id="7" value="es" style="shape=cylinder3;whiteSpace=wrap;html=1;boundedLbl=1;backgroundOutline=1;size=15;dashed=1;" parent="1" vertex="1">
                    <mxGeometry x="384" y="360" width="60" height="80" as="geometry"/>
                </mxCell>
                <mxCell id="11" value="网关路由" style="rounded=0;whiteSpace=wrap;html=1;" parent="1" vertex="1">
                    <mxGeometry x="280" y="130" width="547" height="40" as="geometry"/>
                </mxCell>
                <mxCell id="12" value="" style="rounded=0;whiteSpace=wrap;html=1;" parent="1" vertex="1">
                    <mxGeometry x="280" y="20" width="547" height="60" as="geometry"/>
                </mxCell>
                <mxCell id="13" value="getway" style="text;html=1;align=center;verticalAlign=middle;resizable=0;points=[];autosize=1;strokeColor=none;fillColor=none;" parent="1" vertex="1">
                    <mxGeometry x="160" y="135" width="60" height="30" as="geometry"/>
                </mxCell>
                <mxCell id="14" value="前端" style="text;html=1;align=center;verticalAlign=middle;resizable=0;points=[];autosize=1;strokeColor=none;fillColor=none;" parent="1" vertex="1">
                    <mxGeometry x="170" y="-30" width="50" height="30" as="geometry"/>
                </mxCell>
                <mxCell id="16" value="低代码子应用1" style="rounded=0;whiteSpace=wrap;html=1;" parent="1" vertex="1">
                    <mxGeometry x="354" y="30" width="106" height="40" as="geometry"/>
                </mxCell>
                <mxCell id="17" value="低代码子应用2" style="rounded=0;whiteSpace=wrap;html=1;" parent="1" vertex="1">
                    <mxGeometry x="530" y="30" width="106" height="40" as="geometry"/>
                </mxCell>
                <mxCell id="21" value="普通子应用" style="rounded=0;whiteSpace=wrap;html=1;" parent="1" vertex="1">
                    <mxGeometry x="710" y="30" width="90" height="40" as="geometry"/>
                </mxCell>
                <mxCell id="22" value="普通应用server" style="rounded=0;whiteSpace=wrap;html=1;" parent="1" vertex="1">
                    <mxGeometry x="682" y="270" width="120" height="60" as="geometry"/>
                </mxCell>
                <mxCell id="23" value="mysql" style="shape=cylinder3;whiteSpace=wrap;html=1;boundedLbl=1;backgroundOutline=1;size=15;rounded=1;" parent="1" vertex="1">
                    <mxGeometry x="710" y="350" width="60" height="80" as="geometry"/>
                </mxCell>
                <mxCell id="24" value="用户中心" style="rounded=0;whiteSpace=wrap;html=1;" parent="1" vertex="1">
                    <mxGeometry x="870" y="-30" width="120" height="60" as="geometry"/>
                </mxCell>
                <mxCell id="25" value="文件服务" style="rounded=0;whiteSpace=wrap;html=1;" parent="1" vertex="1">
                    <mxGeometry x="870" y="50" width="120" height="60" as="geometry"/>
                </mxCell>
                <mxCell id="26" value="消息服务" style="rounded=0;whiteSpace=wrap;html=1;" parent="1" vertex="1">
                    <mxGeometry x="870" y="130" width="120" height="60" as="geometry"/>
                </mxCell>
                <mxCell id="27" value="服务端" style="text;html=1;align=center;verticalAlign=middle;resizable=0;points=[];autosize=1;strokeColor=none;fillColor=none;" parent="1" vertex="1">
                    <mxGeometry x="150" y="310" width="60" height="30" as="geometry"/>
                </mxCell>
                <mxCell id="28" value="微前端基座" style="text;html=1;strokeColor=none;fillColor=none;align=center;verticalAlign=middle;whiteSpace=wrap;rounded=0;" parent="1" vertex="1">
                    <mxGeometry x="280" y="20" width="70" height="30" as="geometry"/>
                </mxCell>
                <mxCell id="32" value="" style="rounded=0;whiteSpace=wrap;html=1;" parent="1" vertex="1">
                    <mxGeometry x="1030" y="-60" width="150" height="500" as="geometry"/>
                </mxCell>
                <mxCell id="33" value="aliyun" style="ellipse;shape=cloud;whiteSpace=wrap;html=1;rounded=1;" parent="1" vertex="1">
                    <mxGeometry x="1045" width="120" height="80" as="geometry"/>
                </mxCell>
                <mxCell id="34" value="aws" style="ellipse;shape=cloud;whiteSpace=wrap;html=1;rounded=1;" parent="1" vertex="1">
                    <mxGeometry x="1045" y="110" width="120" height="80" as="geometry"/>
                </mxCell>
                <mxCell id="35" value="" style="rounded=0;whiteSpace=wrap;html=1;" parent="1" vertex="1">
                    <mxGeometry x="280" y="480" width="900" height="55" as="geometry"/>
                </mxCell>
                <mxCell id="37" value="devops" style="text;html=1;strokeColor=none;fillColor=none;align=center;verticalAlign=middle;whiteSpace=wrap;rounded=0;" parent="1" vertex="1">
                    <mxGeometry x="160" y="495.5" width="60" height="30" as="geometry"/>
                </mxCell>
                <mxCell id="38" value="ci/cd" style="rounded=0;whiteSpace=wrap;html=1;" parent="1" vertex="1">
                    <mxGeometry x="575" y="493.5" width="110" height="30" as="geometry"/>
                </mxCell>
                <mxCell id="39" value="gtlab" style="rounded=0;whiteSpace=wrap;html=1;" parent="1" vertex="1">
                    <mxGeometry x="340.5" y="493.5" width="107" height="32" as="geometry"/>
                </mxCell>
                <mxCell id="40" value="统一登录平台" style="rounded=0;whiteSpace=wrap;html=1;" parent="1" vertex="1">
                    <mxGeometry x="281.5" y="-60" width="547" height="50" as="geometry"/>
                </mxCell>
                <mxCell id="41" value="ks集群" style="text;html=1;strokeColor=none;fillColor=none;align=center;verticalAlign=middle;whiteSpace=wrap;rounded=0;" parent="1" vertex="1">
                    <mxGeometry x="1045" y="-60" width="60" height="30" as="geometry"/>
                </mxCell>
                <mxCell id="43" value="..." style="rounded=0;whiteSpace=wrap;html=1;" parent="1" vertex="1">
                    <mxGeometry x="760" y="492.5" width="110" height="30" as="geometry"/>
                </mxCell>
                <mxCell id="44" value="日志" style="rounded=0;whiteSpace=wrap;html=1;" parent="1" vertex="1">
                    <mxGeometry x="870" y="210" width="120" height="60" as="geometry"/>
                </mxCell>
                <mxCell id="45" value="配置中心" style="rounded=0;whiteSpace=wrap;html=1;" parent="1" vertex="1">
                    <mxGeometry x="870" y="290" width="120" height="60" as="geometry"/>
                </mxCell>
                <mxCell id="46" value="..." style="ellipse;shape=cloud;whiteSpace=wrap;html=1;rounded=1;" parent="1" vertex="1">
                    <mxGeometry x="1045" y="330" width="120" height="80" as="geometry"/>
                </mxCell>
                <mxCell id="3a6RCcFlJezi493A5CJC-47" value="基础服务" style="text;html=1;strokeColor=none;fillColor=none;align=center;verticalAlign=middle;whiteSpace=wrap;rounded=0;" vertex="1" parent="1">
                    <mxGeometry x="860" y="-60" width="60" height="30" as="geometry"/>
                </mxCell>
                <mxCell id="3a6RCcFlJezi493A5CJC-48" value="华为云" style="ellipse;shape=cloud;whiteSpace=wrap;html=1;rounded=1;" vertex="1" parent="1">
                    <mxGeometry x="1045" y="220" width="120" height="80" as="geometry"/>
                </mxCell>
                <mxCell id="3a6RCcFlJezi493A5CJC-49" value="..." style="rounded=0;whiteSpace=wrap;html=1;" vertex="1" parent="1">
                    <mxGeometry x="870" y="370" width="120" height="60" as="geometry"/>
                </mxCell>
                <mxCell id="3a6RCcFlJezi493A5CJC-51" value="低代码应用1" style="text;html=1;strokeColor=none;fillColor=none;align=center;verticalAlign=middle;whiteSpace=wrap;rounded=0;" vertex="1" parent="1">
                    <mxGeometry x="270" y="220" width="90" height="20" as="geometry"/>
                </mxCell>
                <mxCell id="3a6RCcFlJezi493A5CJC-52" value="" style="rounded=0;whiteSpace=wrap;html=1;" vertex="1" parent="1">
                    <mxGeometry x="470" y="220" width="170" height="220" as="geometry"/>
                </mxCell>
                <mxCell id="3a6RCcFlJezi493A5CJC-53" value="低代码sdk" style="rounded=0;whiteSpace=wrap;html=1;" vertex="1" parent="1">
                    <mxGeometry x="485" y="270" width="120" height="60" as="geometry"/>
                </mxCell>
                <mxCell id="3a6RCcFlJezi493A5CJC-54" value="mysql" style="shape=cylinder3;whiteSpace=wrap;html=1;boundedLbl=1;backgroundOutline=1;size=15;" vertex="1" parent="1">
                    <mxGeometry x="485" y="360" width="60" height="80" as="geometry"/>
                </mxCell>
                <mxCell id="3a6RCcFlJezi493A5CJC-55" value="es" style="shape=cylinder3;whiteSpace=wrap;html=1;boundedLbl=1;backgroundOutline=1;size=15;dashed=1;" vertex="1" parent="1">
                    <mxGeometry x="559" y="360" width="60" height="80" as="geometry"/>
                </mxCell>
                <mxCell id="3a6RCcFlJezi493A5CJC-56" value="低代码应用2" style="text;html=1;strokeColor=none;fillColor=none;align=center;verticalAlign=middle;whiteSpace=wrap;rounded=0;" vertex="1" parent="1">
                    <mxGeometry x="470" y="220" width="90" height="20" as="geometry"/>
                </mxCell>
                <mxCell id="49" value="普通应用" style="text;html=1;strokeColor=none;fillColor=none;align=center;verticalAlign=middle;whiteSpace=wrap;rounded=0;" vertex="1" parent="1">
                    <mxGeometry x="657" y="220" width="90" height="20" as="geometry"/>
                </mxCell>
            </root>
        </mxGraphModel>
    </diagram>
</mxfile>